%TF.GenerationSoftware,Altium Limited,Altium Designer,19.1.7 (138)*%
G04 Layer_Color=16711935*
%FSLAX26Y26*%
%MOIN*%
%TF.FileFunction,Other,Mechanical_1*%
%TF.Part,Single*%
G01*
G75*
%TA.AperFunction,NonConductor*%
%ADD10C,0.006000*%
%ADD11C,0.003937*%
%ADD12C,0.010000*%
D10*
X3370000Y220000D02*
Y285000D01*
Y220000D02*
X4145000D01*
Y315000D01*
X3950000D02*
X4145000D01*
X3950000Y285000D02*
Y315000D01*
X3370000Y285000D02*
X3950000D01*
X3375000Y430000D02*
Y470000D01*
Y430000D02*
X3635000D01*
Y470000D01*
X3375000D02*
X3635000D01*
X3175000Y200000D02*
Y500000D01*
Y200000D02*
X3205000D01*
Y340000D01*
X3345000D01*
Y395000D01*
X3205000D02*
X3345000D01*
X3205000D02*
Y500000D01*
X3175000D02*
X3205000D01*
X2820000Y230000D02*
X2835000Y245000D01*
X2820000Y230000D02*
X2930000Y120000D01*
X2945000Y135000D01*
X2835000Y245000D02*
X2945000Y135000D01*
X2795000Y435000D02*
Y460000D01*
Y435000D02*
X3130000D01*
Y460000D01*
X2795000D02*
X3130000D01*
X3070000Y640000D02*
Y680000D01*
Y640000D02*
X3510000D01*
Y680000D01*
X3070000D02*
X3510000D01*
X1650000Y525000D02*
Y570000D01*
Y525000D02*
X2165000D01*
Y570000D01*
X1650000D02*
X2165000D01*
X300000Y585000D02*
Y700000D01*
Y585000D02*
X320000D01*
Y700000D01*
X300000D02*
X320000D01*
D11*
X2463465Y242598D02*
Y317401D01*
X2325669Y242598D02*
Y317401D01*
Y242598D02*
X2463465D01*
X2325669Y317401D02*
X2463465D01*
X2374882Y280000D02*
X2414252D01*
X2394567Y260315D02*
Y299685D01*
X1597008Y375315D02*
X1722992D01*
X1597008Y249331D02*
X1722992D01*
Y375315D01*
X1597008Y249331D02*
Y375315D01*
X1660000Y292638D02*
Y332008D01*
X1640315Y312323D02*
X1679685D01*
X1578898Y247598D02*
Y322401D01*
X1441102Y247598D02*
Y322401D01*
Y247598D02*
X1578898D01*
X1441102Y322401D02*
X1578898D01*
X1490315Y285000D02*
X1529685D01*
X1510000Y265315D02*
Y304685D01*
X473465Y352598D02*
Y427401D01*
X335669Y352598D02*
Y427401D01*
Y352598D02*
X473465D01*
X335669Y427401D02*
X473465D01*
X384882Y390000D02*
X424252D01*
X404567Y370315D02*
Y409685D01*
X335669Y437599D02*
Y512402D01*
X473465Y437599D02*
Y512402D01*
X335669D02*
X473465D01*
X335669Y437599D02*
X473465D01*
X384882Y475000D02*
X424252D01*
X404567Y455315D02*
Y494685D01*
X703898Y37598D02*
Y112401D01*
X566102Y37598D02*
Y112401D01*
Y37598D02*
X703898D01*
X566102Y112401D02*
X703898D01*
X615315Y75000D02*
X654685D01*
X635000Y55315D02*
Y94685D01*
X606102Y150932D02*
X743898D01*
X606102D02*
Y225735D01*
X743898Y150932D02*
Y225735D01*
X606102D02*
X743898D01*
X655315Y188333D02*
X694685D01*
X675000Y168648D02*
Y208018D01*
X675000Y256981D02*
Y296352D01*
X655315Y276667D02*
X694685D01*
X606102Y314068D02*
X743898D01*
X606102Y239265D02*
X743898D01*
X606102D02*
Y314068D01*
X743898Y239265D02*
Y314068D01*
D12*
X0Y0D02*
X4320000D01*
Y720000D01*
X0D02*
X4320000D01*
X0Y0D02*
Y720000D01*
%TF.MD5,6da232a2710899a7fef1bf7bfc46d777*%
M02*
